<?xml version="1.0" encoding="utf-8"?>
<!-- Generator: Adobe Illustrator 27.4.0, SVG Export Plug-In . SVG Version: 6.00 Build 0)  -->
<svg version="1.1" id="gray-logo" xmlns="http://www.w3.org/2000/svg" xmlns:xlink="http://www.w3.org/1999/xlink" x="0px"
	 y="0px" viewBox="0 0 100 24.3" style="enable-background:new 0 0 100 24.3;" xml:space="preserve">
<style type="text/css">
	* {fill:#5f6368;}
</style>
<path d="M93.2,21.2c-1.8,0-3-0.8-3.8-2.5l10.7-4.4l-0.4-1c-0.7-1.8-2.7-5.1-6.8-5.1c-4.1,0-7.5,3.3-7.5,7.9
	c0,4.5,3.4,7.9,7.9,7.9c3.7,0,5.7-2.2,6.6-3.6L97,18.9C96,20.4,94.8,21.2,93.2,21.2L93.2,21.2z M92.9,11.5c1.4,0,2.6,0.7,3,1.8
	l-7.1,3C88.7,12.8,91.1,11.5,92.9,11.5z"/>
<path d="M79.5,0h3.4v24.3h-3.4V0z"/>
<path d="M69.8,8.5c-1.9,0-3.4,0.8-4.4,1.8h-0.1V8.9V0H62v8.9l0,0v15.4h3.3h0.1v-1.8h0.1c0.8,1,2.3,1.8,4.2,1.8
	c4,0,7.4-3.4,7.4-7.9S73.8,8.5,69.8,8.5z M69.5,21.2c-2.5,0-4.2-2-4.2-4.8s1.9-4.8,4.2-4.8c2.5,0,4.2,1.9,4.2,4.8
	C73.8,19.1,72,21.2,69.5,21.2z"/>
<path d="M33.6,24.3c1.9,0,3.4-0.8,4.2-1.8H38v1.8h3.4V8.9h-3.3v1.4H38c-1-1-2.5-1.8-4.4-1.8c-4,0-7.4,3.4-7.4,7.9
	S29.8,24.3,33.6,24.3z M33.9,11.6c2.3,0,4.2,2,4.2,4.8s-1.8,4.8-4.2,4.8c-2.5,0-4.1-2-4.1-4.8C29.8,13.5,31.6,11.6,33.9,11.6z"/>
<path d="M51.5,24.3c1.9,0,3.4-0.8,4.2-1.8h0.1v1.8h3.4V8.9H56v1.4h-0.1c-1-1-2.5-1.8-4.4-1.8c-4,0-7.4,3.4-7.4,7.9
	S47.5,24.3,51.5,24.3z M51.8,11.6c2.3,0,4.2,2,4.2,4.8s-1.8,4.8-4.2,4.8c-2.5,0-4.2-2-4.2-4.8C47.5,13.5,49.3,11.6,51.8,11.6z"/>
<polygon points="11.7,16.4 19.9,6.7 20.1,24.3 23.9,24.3 23.9,0 20.1,0 20.1,0 11.7,9.7 3.8,0 3.8,0 0,0 0,24.3 
	3.8,24.3 3.7,6.7 "/>
</svg>
