<?xml version="1.0" encoding="utf-8"?>
<!-- Generator: Adobe Illustrator 27.4.0, SVG Export Plug-In . SVG Version: 6.00 Build 0)  -->
<svg version="1.1" id="Ebene_1" xmlns:v="https://vecta.io/nano"
	 xmlns="http://www.w3.org/2000/svg" xmlns:xlink="http://www.w3.org/1999/xlink" x="0px" y="0px" viewBox="0 0 100 102"
	 style="enable-background:new 0 0 100 102;" xml:space="preserve">
<style type="text/css">
	.st0{fill:#4285F4;}
	.st1{fill:#34A853;}
	.st2{fill:#FBBC05;}
	.st3{fill:#EA4335;}
</style>
<g transform="translate(1184.583 765.171)">
	<path class="st0" d="M-1133.6-723.4v19.8h27.5c-1.2,6.4-4.8,11.7-10.3,15.4l16.6,12.8c9.6-8.9,15.2-22,15.2-37.5
		c0-3.6-0.3-7.1-0.9-10.4L-1133.6-723.4z"/>
	<path class="st1" d="M-1162.2-704.4l-3.7,2.9l-13.2,10.3l0,0c8.4,16.7,25.6,28.2,45.5,28.2c13.8,0,25.3-4.5,33.8-12.3l-16.6-12.8
		c-4.5,3.1-10.3,4.9-17.2,4.9C-1146.8-683.4-1158.1-692.3-1162.2-704.4L-1162.2-704.4z"/>
	<path class="st2" d="M-1179.1-737c-3.5,6.9-5.5,14.6-5.5,22.9c0,8.3,2,16,5.5,22.9c0,0,17-13.2,17-13.2c-1-3.1-1.6-6.3-1.6-9.7
		s0.6-6.6,1.6-9.7L-1179.1-737z"/>
	<path class="st3" d="M-1133.6-744.9c7.5,0,14.2,2.6,19.5,7.6l14.6-14.6c-8.9-8.3-20.4-13.3-34.1-13.3c-19.9,0-37.2,11.5-45.5,28.2
		l17,13.2C-1158.1-735.9-1146.8-744.9-1133.6-744.9L-1133.6-744.9z"/>
</g>
</svg>
