<?xml version="1.0" encoding="utf-8"?>
<!-- Generator: Adobe Illustrator 27.4.0, SVG Export Plug-In . SVG Version: 6.00 Build 0)  -->
<svg version="1.1" id="google-color-logo" xmlns="http://www.w3.org/2000/svg" xmlns:xlink="http://www.w3.org/1999/xlink" x="0px"
	 y="0px" viewBox="0 0 100 31.3" style="enable-background:new 0 0 100 31.3;" xml:space="preserve">
<style type="text/css">
	.st0{fill:#EA4335;}
	.st1{fill:#34A853;}
	.st2{fill:#4285F4;}
	.st3{fill:#FBBC05;}
</style>
<path class="st0" d="M93.2,21.2c-1.8,0-3-0.8-3.8-2.5l10.7-4.4l-0.4-1c-0.7-1.8-2.7-5.1-6.8-5.1c-4.1,0-7.5,3.3-7.5,7.9
	c0,4.5,3.4,7.9,7.9,7.9c3.7,0,5.7-2.2,6.6-3.6L97,18.9C96,20.4,94.8,21.2,93.2,21.2L93.2,21.2z M92.9,11.5c1.4,0,2.6,0.7,3,1.8
	l-7.1,3C88.7,12.8,91.1,11.5,92.9,11.5z"/>
<path class="st1" d="M79.1,0.3h3.4v24h-3.4V0.3z"/>
<path class="st2" d="M73.1,10.2L73.1,10.2c-1-1-2.5-1.8-4.4-1.8c-4,0-7.4,3.4-7.4,7.9s3.4,7.9,7.4,7.9c1.9,0,3.4-0.8,4.2-1.8h0.1
	v1.1c0,3-1.6,4.6-4.2,4.6c-2.2,0-3.4-1.5-4-2.9l-3,1.2c0.8,2,3.1,4.6,7.1,4.6c4.1,0,7.5-2.5,7.5-8.3V8.9h-3.3L73.1,10.2L73.1,10.2z
	 M69,21.2c-2.5,0-4.2-2-4.2-4.8c0-2.9,1.8-4.8,4.2-4.8c2.3,0,4.2,2,4.2,4.8S71.4,21.2,69,21.2z"/>
<path class="st3" d="M51.8,8.5c-4.4,0-7.9,3.3-7.9,7.9c0,4.5,3.6,7.9,7.9,7.9s7.9-3.4,7.9-7.9C59.7,11.7,56.1,8.5,51.8,8.5z
	 M51.8,21.2c-2.5,0-4.5-1.9-4.5-4.8s2-4.8,4.5-4.8c2.5,0,4.5,1.9,4.5,4.8S54.1,21.2,51.8,21.2z"/>
<path class="st0" d="M34,8.5c-4.4,0-7.9,3.3-7.9,7.9c0,4.5,3.6,7.9,7.9,7.9s7.9-3.4,7.9-7.9C41.9,11.7,38.4,8.5,34,8.5z M34,21.2
	c-2.5,0-4.5-1.9-4.5-4.8s2-4.8,4.5-4.8s4.5,1.9,4.5,4.8C38.5,19.3,36.3,21.2,34,21.2z"/>
<path class="st2" d="M12.4,11.2v3.4h8.1c-0.3,1.9-0.8,3.3-1.8,4.2c-1.2,1.2-3,2.5-6.1,2.5c-4.9,0-8.7-4-8.7-8.9s3.8-8.9,8.7-8.9
	c2.6,0,4.6,1.1,6,2.5l2.3-2.3c-2-2.2-4.6-3.7-8.5-3.7C5.7,0,0,5.5,0,12.3s5.7,12.3,12.4,12.3c3.7,0,6.4-1.2,8.6-3.4s2.9-5.3,2.9-7.9
	c0-0.8,0-1.5-0.1-2H12.4z"/>
</svg>
