<svg version="1.1" xmlns="http://www.w3.org/2000/svg" xmlns:xlink="http://www.w3.org/1999/xlink" x="0px" y="0px"
	 viewBox="0 0 23.9 25.7" style="enable-background:new 0 0 23.9 25.7;" xml:space="preserve">
<polygon points="2.8,13.1 1.6,18.4 5.8,17 "/>
<polygon points="6.5,17.9 1.3,19.7 0,25.7 7.7,25.7 10.6,23.2 "/>
<polygon points="9.3,25.7 23.3,25.7 16.4,19.7 "/>
<polygon points="23.9,24.8 21.8,15.2 17.2,19 "/>
<path d="M14.4,14.1l5-1.7h-3.9C15.2,13,14.8,13.6,14.4,14.1z"/>
<path d="M10.6,15.4c-0.5-0.7-1.3-1.8-2.1-3H3.6l3.2,4.2L10.6,15.4z"/>
<path d="M12.9,16.2l-0.9,1.1l-0.8-1l-3.7,1.2l3.8,5L21.5,14l-0.2-1.1l-7.9,2.7C13.1,15.9,13,16.1,12.9,16.2z"/>
<path d="M17.5,5.5c0-3-2.5-5.5-5.5-5.5C9,0,6.6,2.5,6.6,5.5s5.5,10,5.5,10S17.5,8.5,17.5,5.5z M9.3,5.6c0-1.5,1.2-2.8,2.8-2.8
	c1.5,0,2.8,1.2,2.8,2.8c0,1.5-1.2,2.8-2.8,2.8C10.5,8.4,9.3,7.1,9.3,5.6z"/>
</svg>
