<svg version="1.1" xmlns="http://www.w3.org/2000/svg" xmlns:xlink="http://www.w3.org/1999/xlink" x="0px" y="0px"
	 viewBox="0 0 544 448" xml:space="preserve">
<path d="M473.1,75c43.2,35.2,70.9,88.9,70.9,149s-27.7,113.8-70.9,149c-10.3,8.4-25.4,6.8-33.8-3.5s-6.8-25.4,3.5-33.8
	C475.3,309.3,496,269.1,496,224s-20.7-85.3-53.2-111.8c-10.3-8.4-11.8-23.5-3.5-33.8s23.5-11.8,33.8-3.5L473.1,75z M412.6,149.5
	c21.5,17.6,35.4,44.4,35.4,74.5s-13.9,56.9-35.4,74.5c-10.3,8.4-25.4,6.8-33.8-3.5s-6.8-25.4,3.5-33.8C393.1,252.4,400,239,400,224
	s-6.9-28.4-17.7-37.3c-10.3-8.4-11.8-23.5-3.5-33.8s23.5-11.8,33.8-3.5L412.6,149.5z M301.1,2.8C312.6,8,320,19.4,320,32v384
	c0,12.6-7.4,24-18.9,29.2s-25,3.1-34.4-5.3L131.8,320H64c-35.3,0-64-28.7-64-64v-64c0-35.3,28.7-64,64-64h67.8L266.7,8.1
	C276.1-0.3,289.6-2.3,301.1,2.8z"/>
</svg>
